<svg id="61179cdd-8b3f-4ab2-98ff-c573ecbefacc" data-name="Calque 1" xmlns="http://www.w3.org/2000/svg" width="283.46" height="34.28" viewBox="0 0 283.46 34.28"><defs><style>.\34 071b700-a348-4426-bba3-38ab3881fc5c{fill:#fff;}</style></defs><title>logo-production-typ</title><path class="4071b700-a348-4426-bba3-38ab3881fc5c" d="M275,12.47c1.85,0,3.16,1.09,3.23,3.7h-6.57c.25-2.4,1.23-3.7,3.34-3.7m-8.71,5.91c0,6.71,5.07,9.18,10.19,9.18a15.34,15.34,0,0,0,6.53-1.3V21.58h-1.09a8.3,8.3,0,0,1-4.5,1.16c-2.79,0-5.3-.8-5.74-3.27h11.68c.07-.83.11-1.78.11-2.46,0-5.62-3.37-8.85-8.41-8.85-5.33,0-8.78,3.52-8.78,9.18Zm-11.54,9.18c3.92,0,7.62-3.41,7.62-9.14V17.33c0-5.52-3-9.18-7.69-9.18a5,5,0,0,0-4.76,2.5l-.65-.15v-2h-4.93V33.91h5.33V25.32l.69-.22a4.74,4.74,0,0,0,4.39,2.46m-5.08-6.2V16.9c0-2.72,1.38-4.28,3.56-4.28,2.36,0,3.78,2,3.78,5.23v.51c0,3.08-1.7,4.86-3.81,4.86a3.9,3.9,0,0,1-3.52-1.85m-15.2-8.16a41.52,41.52,0,0,0-1.67,10.23H232a51.46,51.46,0,0,0-2.5-10.16l-1.7-4.75h-6.13l8.12,18.57c-.87,1.85-1.71,2.21-2.72,2.21a3.65,3.65,0,0,1-2.36-.73h-1.09V33.4a8.41,8.41,0,0,0,3.52.87c5,0,6.35-2.79,9.36-11.5l4.9-14.26H236ZM215,27.2V10a2.44,2.44,0,0,0-.83-2l.65-.65a2.45,2.45,0,0,0,2,.83h5V3.26H202.46V8.15h5a2.44,2.44,0,0,0,2-.83l.65.65a2.45,2.45,0,0,0-.83,2V27.2ZM176,8.52h-5V27.2h5.33v-13a3.43,3.43,0,0,1,2.79-1.56c1.85,0,3.23.94,3.23,3.66V27.2h5.33V14.46c0-4.35-2.68-6.31-6.42-6.31a4.91,4.91,0,0,0-4.65,2.5l-.65-.15Zm-22.49,9.65v-.62c0-3.23,1.34-5.08,3.81-5.08s3.81,1.85,3.81,5.08v.62c0,3.23-1.34,5.08-3.81,5.08s-3.81-1.85-3.81-5.08m-5.33.22c0,5.66,3.7,9.17,9.18,9.17s9.14-3.51,9.14-9.17V17.33c0-5.66-3.7-9.18-9.14-9.18s-9.18,3.52-9.18,9.18Zm-4.57-9.87h-5.33V27.2h5.33Zm.58-5.41A3,3,0,0,0,140.86,0a3,3,0,0,0-3.15,3.12V3.4a3,3,0,0,0,3.15,3.15A3,3,0,0,0,144.2,3.4ZM129.54,27.52a10.48,10.48,0,0,0,4.32-.8V21.87h-1.08a3.5,3.5,0,0,1-2.14.62c-1.34,0-2-.65-2-3.3v-6.1h5.26V8.52H128.6V3.26h-5.33V8.52h-3.59v4.57h3.59v7.44c0,5,2,7,6.27,7M102,18.39c0,6.68,4.53,9.17,9,9.17a11.74,11.74,0,0,0,5.73-1.3V21.47h-1.09a5.21,5.21,0,0,1-3.52,1.31c-2.58,0-4.83-1.05-4.83-4.68v-.51c0-3.23,1.71-4.79,4.39-4.79a4.84,4.84,0,0,1,3.77,1.34h1.09V9.43a12,12,0,0,0-5.73-1.27c-5,0-8.85,3.66-8.85,9.18ZM87.24,27.56c2.14,0,4.43-1.09,5-2.5l.65.14v2h4.53V8.52H92.11v13.1a3.36,3.36,0,0,1-2.65,1.45c-1.78,0-3.09-.91-3.09-3.48V8.52H81V21.4c0,4.17,2.72,6.16,6.2,6.16M75.89,27.2V1.08H70.56V10.4l-.69.22a4.79,4.79,0,0,0-4.5-2.46c-3.81,0-7.51,3.41-7.51,9.14v1.09c0,5.52,3,9.17,7.29,9.17a5.26,5.26,0,0,0,4.94-2.5l.65.14v2ZM70.56,14.36v4.46c0,2.72-1.38,4.28-3.56,4.28-2.36,0-3.78-2-3.78-5.23v-.51c0-3.08,1.71-4.86,3.81-4.86a3.9,3.9,0,0,1,3.52,1.85M41,18.17v-.62c0-3.23,1.34-5.08,3.81-5.08s3.81,1.85,3.81,5.08v.62c0,3.23-1.34,5.08-3.81,5.08S41,21.4,41,18.17m-5.33.22c0,5.66,3.7,9.17,9.18,9.17s9.14-3.51,9.14-9.17V17.33c0-5.66-3.7-9.18-9.14-9.18s-9.18,3.52-9.18,9.18ZM21.29,8.52V27.2h5.33v-12a4.82,4.82,0,0,1,4-2.07,3.83,3.83,0,0,1,1.81.44h1.09V8.23c-.44,0-1.2-.07-1.67-.07a5,5,0,0,0-4.75,2.46l-.65-.14v-2ZM5.73,27.2V21.9a2.41,2.41,0,0,0-.91-2l.8-.8a2.78,2.78,0,0,0,2.32.91h2c4.57,0,8.16-3.19,8.16-8.38S14.55,3.26,10,3.26H0V27.2Zm0-17.52A2.09,2.09,0,0,0,4.89,8l.69-.65a2.07,2.07,0,0,0,1.71.8h1.6a3.39,3.39,0,0,1,3.52,3.52,3.38,3.38,0,0,1-3.52,3.48H7.65A2.5,2.5,0,0,0,5.58,16l-.69-.73a2.14,2.14,0,0,0,.83-1.67Z" transform="translate(0 0.01)"/></svg>